<svg xmlns="http://www.w3.org/2000/svg" width="960" height="520" viewBox="0 0 960 520">
<rect width="100%" height="100%" fill="#ffffff"/>
<text x="480.0" y="34" text-anchor="middle" font-family="Arial" font-size="24" fill="#16232a">Top model features</text>
<text x="178" y="85.7" text-anchor="end" font-family="Arial" font-size="13" fill="#27343b">search_volume_vs_bucket_mean</text>
<rect x="190" y="70.0" width="730.0" height="24.2" fill="#4E79A7" rx="4"/>
<text x="928.0" y="85.7" font-family="Arial" font-size="13" fill="#27343b">16.5</text>
<text x="178" y="119.9" text-anchor="end" font-family="Arial" font-size="13" fill="#27343b">content_age_days_vs_bucket_media</text>
<rect x="190" y="104.2" width="667.7" height="24.2" fill="#4E79A7" rx="4"/>
<text x="865.7" y="119.9" font-family="Arial" font-size="13" fill="#27343b">15.1</text>
<text x="178" y="154.0" text-anchor="end" font-family="Arial" font-size="13" fill="#27343b">word_count_vs_bucket_median</text>
<rect x="190" y="138.3" width="564.2" height="24.2" fill="#4E79A7" rx="4"/>
<text x="762.2" y="154.0" font-family="Arial" font-size="13" fill="#27343b">12.7</text>
<text x="178" y="188.2" text-anchor="end" font-family="Arial" font-size="13" fill="#27343b">search_volume_vs_bucket_median</text>
<rect x="190" y="172.5" width="258.8" height="24.2" fill="#4E79A7" rx="4"/>
<text x="456.8" y="188.2" font-family="Arial" font-size="13" fill="#27343b">5.84</text>
<text x="178" y="222.4" text-anchor="end" font-family="Arial" font-size="13" fill="#27343b">days_since_update_vs_bucket_mean</text>
<rect x="190" y="206.7" width="248.1" height="24.2" fill="#4E79A7" rx="4"/>
<text x="446.1" y="222.4" font-family="Arial" font-size="13" fill="#27343b">5.6</text>
<text x="178" y="256.5" text-anchor="end" font-family="Arial" font-size="13" fill="#27343b">log_age</text>
<rect x="190" y="240.8" width="244.2" height="24.2" fill="#4E79A7" rx="4"/>
<text x="442.2" y="256.5" font-family="Arial" font-size="13" fill="#27343b">5.52</text>
<text x="178" y="290.7" text-anchor="end" font-family="Arial" font-size="13" fill="#27343b">age_squared</text>
<rect x="190" y="275.0" width="217.0" height="24.2" fill="#4E79A7" rx="4"/>
<text x="415.0" y="290.7" font-family="Arial" font-size="13" fill="#27343b">4.9</text>
<text x="178" y="324.9" text-anchor="end" font-family="Arial" font-size="13" fill="#27343b">content_age_days</text>
<rect x="190" y="309.2" width="195.5" height="24.2" fill="#4E79A7" rx="4"/>
<text x="393.5" y="324.9" font-family="Arial" font-size="13" fill="#27343b">4.41</text>
<text x="178" y="359.0" text-anchor="end" font-family="Arial" font-size="13" fill="#27343b">data_completeness</text>
<rect x="190" y="343.3" width="134.1" height="24.2" fill="#4E79A7" rx="4"/>
<text x="332.1" y="359.0" font-family="Arial" font-size="13" fill="#27343b">3.03</text>
<text x="178" y="393.2" text-anchor="end" font-family="Arial" font-size="13" fill="#27343b">content_age_days_vs_bucket_mean</text>
<rect x="190" y="377.5" width="116.4" height="24.2" fill="#4E79A7" rx="4"/>
<text x="314.4" y="393.2" font-family="Arial" font-size="13" fill="#27343b">2.63</text>
<text x="178" y="427.4" text-anchor="end" font-family="Arial" font-size="13" fill="#27343b">word_count</text>
<rect x="190" y="411.7" width="110.3" height="24.2" fill="#4E79A7" rx="4"/>
<text x="308.3" y="427.4" font-family="Arial" font-size="13" fill="#27343b">2.49</text>
<text x="178" y="461.5" text-anchor="end" font-family="Arial" font-size="13" fill="#27343b">search_volume</text>
<rect x="190" y="445.8" width="103.7" height="24.2" fill="#4E79A7" rx="4"/>
<text x="301.7" y="461.5" font-family="Arial" font-size="13" fill="#27343b">2.34</text>
</svg>